<?xml version="1.0" encoding="utf-8"?>
<!-- Generated by IcoMoon.io -->
<!DOCTYPE svg PUBLIC "-//W3C//DTD SVG 1.1//EN" "http://www.w3.org/Graphics/SVG/1.1/DTD/svg11.dtd">
<svg version="1.1" xmlns="http://www.w3.org/2000/svg" xmlns:xlink="http://www.w3.org/1999/xlink" width="21" height="16" viewBox="0 0 21 16">
<path fill="#4d4d4d" d="M9.214 8.571q-0.527-0.018-0.75-0.491-0.152-0.304-0.429-0.478t-0.607-0.174q-0.473 0-0.808 0.335t-0.335 0.808q0 0.5 0.321 0.795l0.089 0.071q0.304 0.277 0.732 0.277 0.33 0 0.607-0.174t0.429-0.478q0.223-0.473 0.75-0.491zM14.286 7.429q0-0.5-0.321-0.795l-0.089-0.071q-0.304-0.277-0.732-0.277-0.33 0-0.607 0.174t-0.429 0.478q-0.223 0.473-0.75 0.491 0.527 0.018 0.75 0.491 0.152 0.304 0.429 0.478t0.607 0.174q0.473 0 0.808-0.335t0.335-0.808zM10.482 5.455q-0.152 0.313-0.491 0.429t-0.652-0.036q-0.554-0.277-1.196-0.277-0.455 0-0.884 0.152 0.027 0 0.085-0.004t0.085-0.004q0.821 0 1.522 0.446t1.058 1.188q0.152 0.321 0.031 0.656t-0.442 0.487q-0.161 0.080-0.348 0.080 0.188 0 0.348 0.080 0.321 0.152 0.442 0.487t-0.031 0.656q-0.357 0.741-1.058 1.188t-1.522 0.446h-0.054q-0.143-0.018-0.393-0.036l-2.589-0.241-2.134 1.071q-0.125 0.063-0.259 0.063-0.357 0-0.509-0.313l-1.429-2.857q-0.098-0.205-0.036-0.424t0.259-0.335l1.866-1.063 1.321-2.384q0.152-1.384 0.817-2.603t1.746-2.112q0.277-0.223 0.629-0.192t0.576 0.308 0.192 0.625-0.308 0.58q-0.625 0.527-1.045 1.143 1.098-0.75 2.384-0.902 0.357-0.045 0.638 0.17t0.317 0.571q0.045 0.357-0.17 0.638t-0.571 0.317q-0.75 0.089-1.42 0.491 0.411-0.089 0.884-0.089 1.027 0 1.946 0.446 0.321 0.161 0.438 0.496t-0.045 0.656zM19.080 4.027l1.429 2.857q0.098 0.205 0.036 0.424t-0.259 0.335l-1.866 1.063-1.321 2.384q-0.152 1.384-0.817 2.603t-1.746 2.112q-0.232 0.196-0.545 0.196-0.402 0-0.661-0.313-0.223-0.277-0.192-0.625t0.308-0.58q0.625-0.527 1.045-1.143-1.098 0.75-2.384 0.902-0.036 0.009-0.107 0.009-0.321 0-0.567-0.214t-0.281-0.536q-0.045-0.357 0.17-0.638t0.571-0.317q0.75-0.089 1.42-0.491-0.411 0.089-0.884 0.089-1.027 0-1.946-0.446-0.321-0.161-0.438-0.496t0.045-0.656q0.152-0.313 0.491-0.429t0.652 0.036q0.554 0.277 1.196 0.277 0.455 0 0.884-0.152-0.027 0-0.085 0.004t-0.085 0.004q-0.821 0-1.522-0.446t-1.058-1.188q-0.152-0.321-0.031-0.656t0.442-0.487q0.161-0.080 0.348-0.080-0.188 0-0.348-0.080-0.321-0.152-0.442-0.487t0.031-0.656q0.357-0.741 1.058-1.188t1.522-0.446h0.063q0.125 0.018 0.375 0.036l2.598 0.241 2.134-1.071q0.125-0.063 0.259-0.063 0.357 0 0.509 0.313z"></path>
</svg>
