<?xml version="1.0" encoding="utf-8"?>
<!-- Generated by IcoMoon.io -->
<!DOCTYPE svg PUBLIC "-//W3C//DTD SVG 1.1//EN" "http://www.w3.org/Graphics/SVG/1.1/DTD/svg11.dtd">
<svg version="1.1" xmlns="http://www.w3.org/2000/svg" xmlns:xlink="http://www.w3.org/1999/xlink" width="16" height="16" viewBox="0 0 16 16">
<path fill="#4d4d4d" d="M1.143 15.429q0 0.232-0.17 0.402t-0.402 0.17-0.402-0.17-0.17-0.402 0.17-0.402 0.402-0.17 0.402 0.17 0.17 0.402zM2.857 13.714q0 0.232-0.17 0.402t-0.402 0.17-0.402-0.17-0.17-0.402 0.17-0.402 0.402-0.17 0.402 0.17 0.17 0.402zM3.259 10.455l2.286 2.286-0.804 0.804-2.286-2.286zM6.286 10.286q0 0.232-0.17 0.402t-0.402 0.17-0.402-0.17-0.17-0.402 0.17-0.402 0.402-0.17 0.402 0.17 0.17 0.402zM12.598 7.429q0 0.527-0.103 0.969t-0.335 0.835-0.393 0.603-0.473 0.576q-0.277 0.313-0.406 0.482t-0.299 0.446-0.237 0.571-0.067 0.661q0 1.42-1.004 2.424t-2.424 1.004q-0.232 0-0.402-0.17t-0.17-0.402 0.17-0.402 0.402-0.17q0.946 0 1.616-0.67t0.67-1.616q0-0.509 0.103-0.942t0.33-0.813 0.388-0.594 0.464-0.563q0.357-0.411 0.531-0.643t0.335-0.665 0.161-0.924q0-1.652-1.174-2.826t-2.826-1.174-2.826 1.174-1.174 2.826q0 0.232-0.17 0.402t-0.402 0.17-0.402-0.17-0.17-0.402q0-1.045 0.406-1.996t1.098-1.643 1.643-1.098 1.996-0.406 1.996 0.406 1.643 1.098 1.098 1.643 0.406 1.996zM8 8.571q0 0.232-0.17 0.402t-0.402 0.17-0.402-0.17-0.17-0.402 0.17-0.402 0.402-0.17 0.402 0.17 0.17 0.402zM10.571 7.429q0 0.232-0.17 0.402t-0.402 0.17-0.402-0.17-0.17-0.402q0-0.83-0.585-1.415t-1.415-0.585q-0.821 0-1.411 0.585t-0.589 1.415q0 0.232-0.17 0.402t-0.402 0.17-0.402-0.17-0.17-0.402q0-1.304 0.92-2.223t2.223-0.92 2.223 0.92 0.92 2.223zM14.089 4.848q0.089 0.223-0.009 0.438t-0.321 0.304q-0.080 0.036-0.205 0.036-0.17 0-0.317-0.098t-0.21-0.268q-0.607-1.589-2-2.634-0.188-0.143-0.223-0.375t0.107-0.42q0.152-0.188 0.384-0.223t0.42 0.107q1.634 1.223 2.375 3.134zM15.964 4.125q0.080 0.223-0.013 0.438t-0.317 0.304q-0.098 0.036-0.205 0.036-0.393 0-0.536-0.366-0.821-2.125-2.652-3.509-0.196-0.143-0.228-0.375t0.112-0.42q0.143-0.196 0.375-0.228t0.42 0.112q2.098 1.563 3.045 4.009z"></path>
</svg>
