<?xml version="1.0" encoding="utf-8"?>
<!-- Generated by IcoMoon.io -->
<!DOCTYPE svg PUBLIC "-//W3C//DTD SVG 1.1//EN" "http://www.w3.org/Graphics/SVG/1.1/DTD/svg11.dtd">
<svg version="1.1" xmlns="http://www.w3.org/2000/svg" xmlns:xlink="http://www.w3.org/1999/xlink" width="21" height="16" viewBox="0 0 21 16">
<path fill="#4d4d4d" d="M4.5 8.875h1.527l-0.009-2.366zM13.661 7.991q0-0.777-0.451-1.25t-1.308-0.473h-0.482v3.464h0.464q0.813 0 1.295-0.509t0.482-1.232zM8.536 4.625l0.009 6.75q0 0.125-0.085 0.214t-0.21 0.089h-1.929q-0.125 0-0.21-0.089t-0.085-0.214v-0.554h-2.598l-0.491 0.723q-0.089 0.134-0.25 0.134h-2.384q-0.188 0-0.272-0.161t0.031-0.313l4.964-6.759q0.080-0.125 0.241-0.125h2.964q0.125 0 0.214 0.089t0.089 0.214zM15.92 7.991q0 1.723-1.121 2.705t-2.897 0.982h-2.411q-0.125 0-0.214-0.089t-0.089-0.214v-6.75q0-0.125 0.089-0.214t0.214-0.089h2.393q1.786 0 2.911 0.973t1.125 2.696zM17.313 8q0 0.098-0.004 0.259t-0.071 0.638-0.192 0.911-0.397 0.964-0.656 0.915h-0.455q0.339-0.402 0.594-0.933t0.371-1 0.188-0.875 0.080-0.647l0.009-0.241q0-0.071-0.004-0.201t-0.067-0.536-0.179-0.817-0.366-0.996-0.589-1.112h0.384q0.366 0.42 0.643 0.955t0.406 0.996 0.205 0.857 0.094 0.629zM18.955 8q0 0.098-0.004 0.259t-0.071 0.638-0.192 0.911-0.402 0.964-0.661 0.915h-0.455q0.339-0.402 0.594-0.933t0.371-1 0.188-0.875 0.080-0.647l0.009-0.241q0-0.071-0.004-0.201t-0.067-0.536-0.174-0.817-0.362-0.996-0.589-1.112h0.384q0.366 0.42 0.643 0.955t0.406 0.996 0.205 0.857 0.094 0.629zM20.571 8q0 0.098-0.004 0.259t-0.071 0.638-0.192 0.911-0.397 0.964-0.656 0.915h-0.455q0.339-0.402 0.589-0.933t0.366-1 0.188-0.875 0.080-0.647l0.009-0.241q0-0.071-0.004-0.201t-0.067-0.536-0.174-0.817-0.362-0.996-0.589-1.112h0.384q0.366 0.42 0.643 0.955t0.406 0.996 0.205 0.857 0.085 0.629z"></path>
</svg>
