<?xml version="1.0" encoding="utf-8"?>
<!-- Generated by IcoMoon.io -->
<!DOCTYPE svg PUBLIC "-//W3C//DTD SVG 1.1//EN" "http://www.w3.org/Graphics/SVG/1.1/DTD/svg11.dtd">
<svg version="1.1" xmlns="http://www.w3.org/2000/svg" xmlns:xlink="http://www.w3.org/1999/xlink" width="13" height="16" viewBox="0 0 13 16">
<path fill="#4d4d4d" d="M3.268 2.777q-0.571 0-0.982-0.406t-0.411-0.987q0-0.571 0.411-0.978t0.982-0.406 0.978 0.406 0.406 0.978q0 0.58-0.406 0.987t-0.978 0.406zM8.188 8.509q0 0.446-0.268 0.603t-0.567 0.058-0.424-0.304l-3.277-3.911q-0.063-0.107-0.125-0.138t-0.098-0.013l-0.027 0.027q-0.063 0.071 0.036 0.188l1.089 1.241 0.009 3.161-1.438 4.080q-0.598 1.714-0.821 2.089-0.143 0.232-0.25 0.286-0.446 0.232-0.92 0.009-0.259-0.116-0.371-0.384t-0.085-0.509q0.018-0.152 1.759-5.518l0.045-3.714-0.759 1.464 0.313 1.982q0.036 0.214-0.009 0.375t-0.125 0.246-0.17 0.143-0.152 0.067l-0.063 0.018q-0.17 0.027-0.308-0.027t-0.214-0.143-0.125-0.196-0.067-0.174-0.018-0.085l-0.411-2.67 1.884-3.402q0.205-0.304 1.009-0.304 0.67 0 0.955 0.357l3.786 4.652q0.062 0.045 0.125 0.152l0.027 0.027-0.009 0.009q0.063 0.116 0.063 0.259zM4.589 9.848q0.384 1.009 0.79 2.009t0.621 1.5l0.214 0.491q0.321 0.83 0.375 1.116 0.098 0.625-0.321 0.866-0.313 0.196-0.589 0.143t-0.455-0.196-0.259-0.313h-0.009q-0.054-0.143-0.071-0.223l-1.107-3.134zM11.946 15.134q0.277 0.438 0.277 0.509 0 0.045-0.027 0.063-0.080 0.045-0.129-0.004t-0.138-0.232-0.143-0.272q-1.018-1.536-3.777-5.902 0.027 0.009 0.063-0.009t0.063-0.036l0.027-0.018q0.098-0.080 0.098-0.152z"></path>
</svg>
