<?xml version="1.0" encoding="utf-8"?>
<!-- Generated by IcoMoon.io -->
<!DOCTYPE svg PUBLIC "-//W3C//DTD SVG 1.1//EN" "http://www.w3.org/Graphics/SVG/1.1/DTD/svg11.dtd">
<svg version="1.1" xmlns="http://www.w3.org/2000/svg" xmlns:xlink="http://www.w3.org/1999/xlink" width="19" height="16" viewBox="0 0 19 16">
<path fill="#4d4d4d" d="M1.714 10.571q-0.589 0-1.009 0.42t-0.42 1.009 0.42 1.009 1.009 0.42 1.009-0.42 0.42-1.009-0.42-1.009-1.009-0.42zM6.286 10.571q-0.589 0-1.009 0.42t-0.42 1.009 0.42 1.009 1.009 0.42 1.009-0.42 0.42-1.009-0.42-1.009-1.009-0.42zM6.286 6q-0.589 0-1.009 0.42t-0.42 1.009 0.42 1.009 1.009 0.42 1.009-0.42 0.42-1.009-0.42-1.009-1.009-0.42zM13.143 10.571q-0.589 0-1.009 0.42t-0.42 1.009 0.42 1.009 1.009 0.42 1.009-0.42 0.42-1.009-0.42-1.009-1.009-0.42zM17.714 10.571q-0.589 0-1.009 0.42t-0.42 1.009 0.42 1.009 1.009 0.42 1.009-0.42 0.42-1.009-0.42-1.009-1.009-0.42zM13.143 6q-0.589 0-1.009 0.42t-0.42 1.009 0.42 1.009 1.009 0.42 1.009-0.42 0.42-1.009-0.42-1.009-1.009-0.42zM17.714 6q-0.589 0-1.009 0.42t-0.42 1.009 0.42 1.009 1.009 0.42 1.009-0.42 0.42-1.009-0.42-1.009-1.009-0.42zM17.714 1.429q-0.589 0-1.009 0.42t-0.42 1.009 0.42 1.009 1.009 0.42 1.009-0.42 0.42-1.009-0.42-1.009-1.009-0.42zM3.429 12q0 0.714-0.5 1.214t-1.214 0.5-1.214-0.5-0.5-1.214 0.5-1.214 1.214-0.5 1.214 0.5 0.5 1.214zM8 12q0 0.714-0.5 1.214t-1.214 0.5-1.214-0.5-0.5-1.214 0.5-1.214 1.214-0.5 1.214 0.5 0.5 1.214zM3.429 7.429q0 0.714-0.5 1.214t-1.214 0.5-1.214-0.5-0.5-1.214 0.5-1.214 1.214-0.5 1.214 0.5 0.5 1.214zM8 7.429q0 0.714-0.5 1.214t-1.214 0.5-1.214-0.5-0.5-1.214 0.5-1.214 1.214-0.5 1.214 0.5 0.5 1.214zM3.429 2.857q0 0.714-0.5 1.214t-1.214 0.5-1.214-0.5-0.5-1.214 0.5-1.214 1.214-0.5 1.214 0.5 0.5 1.214zM14.857 12q0 0.714-0.5 1.214t-1.214 0.5-1.214-0.5-0.5-1.214 0.5-1.214 1.214-0.5 1.214 0.5 0.5 1.214zM8 2.857q0 0.714-0.5 1.214t-1.214 0.5-1.214-0.5-0.5-1.214 0.5-1.214 1.214-0.5 1.214 0.5 0.5 1.214zM19.429 12q0 0.714-0.5 1.214t-1.214 0.5-1.214-0.5-0.5-1.214 0.5-1.214 1.214-0.5 1.214 0.5 0.5 1.214zM14.857 7.429q0 0.714-0.5 1.214t-1.214 0.5-1.214-0.5-0.5-1.214 0.5-1.214 1.214-0.5 1.214 0.5 0.5 1.214zM19.429 7.429q0 0.714-0.5 1.214t-1.214 0.5-1.214-0.5-0.5-1.214 0.5-1.214 1.214-0.5 1.214 0.5 0.5 1.214zM14.857 2.857q0 0.714-0.5 1.214t-1.214 0.5-1.214-0.5-0.5-1.214 0.5-1.214 1.214-0.5 1.214 0.5 0.5 1.214zM19.429 2.857q0 0.714-0.5 1.214t-1.214 0.5-1.214-0.5-0.5-1.214 0.5-1.214 1.214-0.5 1.214 0.5 0.5 1.214z"></path>
</svg>
