<?xml version="1.0" encoding="utf-8"?>
<!-- Generated by IcoMoon.io -->
<!DOCTYPE svg PUBLIC "-//W3C//DTD SVG 1.1//EN" "http://www.w3.org/Graphics/SVG/1.1/DTD/svg11.dtd">
<svg version="1.1" xmlns="http://www.w3.org/2000/svg" xmlns:xlink="http://www.w3.org/1999/xlink" width="16" height="16" viewBox="0 0 16 16">
<path fill="#4d4d4d" d="M9.429 7.429q0 0.232 0.17 0.402t0.402 0.17 0.402-0.17 0.17-0.402q0-1.304-0.92-2.223t-2.223-0.92-2.223 0.92-0.92 2.223q0 0.232 0.17 0.402t0.402 0.17 0.402-0.17 0.17-0.402q0-0.83 0.589-1.415t1.411-0.585 1.411 0.585 0.589 1.415zM7.455 2.286q-1.045 0-1.996 0.406t-1.643 1.098-1.098 1.643-0.406 1.996q0 0.232 0.17 0.402t0.402 0.17 0.402-0.17 0.17-0.402q0-1.652 1.174-2.826t2.826-1.174 2.826 1.174 1.174 2.826q0 0.491-0.161 0.924t-0.335 0.665-0.531 0.643q-0.304 0.348-0.464 0.563t-0.388 0.594-0.33 0.813-0.103 0.942q0 0.946-0.67 1.616t-1.616 0.67q-0.232 0-0.402 0.17t-0.17 0.402 0.17 0.402 0.402 0.17q1.42 0 2.424-1.004t1.004-2.424q0-0.366 0.067-0.661t0.237-0.571 0.299-0.446 0.406-0.482q0.313-0.366 0.473-0.576t0.393-0.603 0.335-0.835 0.103-0.969q0-1.045-0.406-1.996t-1.098-1.643-1.643-1.098-1.996-0.406zM5.277 8.705l2.018 2.018-5.17 5.17q-0.107 0.107-0.259 0.107t-0.259-0.107l-1.5-1.5q-0.107-0.107-0.107-0.259t0.107-0.259zM14.393 0.107l1.5 1.5q0.107 0.107 0.107 0.259t-0.107 0.268l-2.080 2.080-0.232 0.223-0.634 0.634q-0.589-1.366-1.741-2.304l2.661-2.661q0.116-0.107 0.268-0.107t0.259 0.107z"></path>
</svg>
