<?xml version="1.0" encoding="utf-8"?>
<!-- Generated by IcoMoon.io -->
<!DOCTYPE svg PUBLIC "-//W3C//DTD SVG 1.1//EN" "http://www.w3.org/Graphics/SVG/1.1/DTD/svg11.dtd">
<svg version="1.1" xmlns="http://www.w3.org/2000/svg" xmlns:xlink="http://www.w3.org/1999/xlink" width="16" height="16" viewBox="0 0 16 16">
<path fill="#4d4d4d" d="M8 7.286q-0.929-1.75-1.429-2.482-1.241-1.804-3.098-2.839-0.304-0.17-0.625-0.321-0.795-0.357-0.839-0.286t0.304 0.339l0.348 0.277q0.554 0.384 1.004 0.835t0.844 1.040 0.629 1.009 0.629 1.17q0.080 0.152 0.116 0.223 0.393 0.75 0.75 1.366t0.875 1.375 1.031 1.339 1.17 1.103 1.326 0.808q1.366 0.589 1.375 0.536 0.009-0.027-0.438-0.33-0.473-0.321-0.723-0.509-0.688-0.518-1.598-1.884t-1.652-2.768zM4.902 12.134q-0.679-0.536-1.183-1.116t-0.875-1.281-0.634-1.379-0.522-1.661-0.464-1.866-0.54-2.25-0.683-2.58q2.438 0 4.442 0.321t3.384 0.821 2.42 1.29 1.656 1.54 0.982 1.772 0.5 1.781 0.112 1.772-0.085 1.545-0.179 1.281-0.116 0.955l2.884 2.92h-0.929l-2.509-2.545q-0.196 0.018-0.817 0.125t-1.085 0.17-1.232 0.054-1.433-0.152-1.496-0.527-1.598-0.991z"></path>
</svg>
