<?xml version="1.0" encoding="utf-8"?>
<!-- Generated by IcoMoon.io -->
<!DOCTYPE svg PUBLIC "-//W3C//DTD SVG 1.1//EN" "http://www.w3.org/Graphics/SVG/1.1/DTD/svg11.dtd">
<svg version="1.1" xmlns="http://www.w3.org/2000/svg" xmlns:xlink="http://www.w3.org/1999/xlink" width="14" height="16" viewBox="0 0 14 16">
<path fill="#4d4d4d" d="M4.634 10.714q0.036-0.054-0.027-0.116-0.080-0.063-0.125-0.018-0.036 0.054 0.027 0.116 0.080 0.063 0.125 0.018zM4.384 10.348q-0.045-0.063-0.107-0.036-0.054 0.036 0 0.107 0.063 0.071 0.107 0.045 0.054-0.036 0-0.116zM4.018 9.991q0.018-0.036-0.045-0.071-0.063-0.018-0.071 0.018-0.027 0.045 0.036 0.071 0.071 0.018 0.080-0.018zM4.205 10.196q0.018-0.009 0.013-0.040t-0.031-0.049q-0.054-0.063-0.089-0.027t0.009 0.098q0.054 0.054 0.098 0.018zM4.973 10.866q0.018-0.063-0.080-0.098-0.080-0.027-0.116 0.036-0.018 0.063 0.080 0.098 0.080 0.027 0.116-0.036zM5.348 10.893q0-0.071-0.107-0.071-0.089 0-0.089 0.071t0.098 0.071 0.098-0.071zM5.696 10.83q-0.018-0.063-0.116-0.045t-0.080 0.080q0.018 0.071 0.107 0.054t0.089-0.089zM11.429 8q0-1.893-1.339-3.232t-3.232-1.339-3.232 1.339-1.339 3.232q0 1.491 0.875 2.683t2.25 1.656q0.161 0.027 0.237-0.045t0.076-0.179q0-0.464-0.009-0.848-0.054 0.009-0.138 0.022t-0.317 0.018-0.429-0.036-0.388-0.179-0.263-0.371q-0.205-0.527-0.509-0.661-0.018-0.009-0.040-0.031l-0.071-0.071t-0.063-0.085 0.036-0.067 0.174-0.031q0.054 0 0.134 0.018t0.268 0.138 0.295 0.317q0.143 0.25 0.335 0.375t0.388 0.125 0.339-0.031 0.268-0.085q0.063-0.42 0.295-0.616-0.438-0.054-0.768-0.165t-0.652-0.348-0.496-0.679-0.174-1.067q0-0.705 0.473-1.223-0.214-0.554 0.045-1.214 0.17-0.054 0.487 0.067t0.54 0.263l0.232 0.143q0.518-0.152 1.143-0.152t1.143 0.152q0.098-0.063 0.254-0.161t0.496-0.232 0.509-0.080q0.259 0.661 0.045 1.214 0.473 0.518 0.473 1.223 0 0.509-0.125 0.897t-0.317 0.625-0.478 0.397-0.558 0.232-0.612 0.107q0.313 0.277 0.313 0.848 0 0.357-0.004 0.795t-0.004 0.455q0 0.107 0.076 0.179t0.237 0.045q1.375-0.464 2.25-1.656t0.875-2.683zM13.714 3.714v8.571q0 1.063-0.754 1.817t-1.817 0.754h-8.571q-1.063 0-1.817-0.754t-0.754-1.817v-8.571q0-1.063 0.754-1.817t1.817-0.754h8.571q1.063 0 1.817 0.754t0.754 1.817z"></path>
</svg>
