<?xml version="1.0" encoding="utf-8"?>
<!-- Generated by IcoMoon.io -->
<!DOCTYPE svg PUBLIC "-//W3C//DTD SVG 1.1//EN" "http://www.w3.org/Graphics/SVG/1.1/DTD/svg11.dtd">
<svg version="1.1" xmlns="http://www.w3.org/2000/svg" xmlns:xlink="http://www.w3.org/1999/xlink" width="14" height="16" viewBox="0 0 14 16">
<path fill="#4d4d4d" d="M7.732 4.598q0 0.241-0.116 0.839-0.098 0.446-0.281 1.339t-0.272 1.339q-0.018 0.098-0.040 0.112t-0.121 0.022q-0.179 0.018-0.277 0.018-0.518 0-0.75-0.442t-0.232-1.013q0-0.786 0.313-1.554t0.92-1.107q0.25-0.125 0.455-0.125 0.25 0 0.326 0.147t0.076 0.424zM12.071 8.384q0-0.125-0.348-0.674t-0.464-0.594q-0.188-0.071-0.304-0.071-0.813 0-2.018 0.688l-0.018-0.018q0.027-0.196 0.246-1.205t0.219-1.589q0-2.080-2.161-2.080-0.214 0-0.607 0.054-0.839 0.152-1.504 0.799t-0.996 1.487-0.33 1.688q0 1.304 0.719 2.009t2.031 0.705q0.223 0 0.223 0.027t-0.009 0.045q-0.036 0.304-0.232 1.045-0.125 0.464-0.46 0.902t-0.737 0.438q-0.375 0-0.375-0.42 0-0.214 0.094-0.424t0.223-0.353 0.263-0.254 0.232-0.179 0.098-0.076q0-0.027-0.063-0.089-0.214-0.196-0.522-0.326t-0.585-0.129q-0.313 0-0.567 0.304t-0.366 0.67-0.112 0.67q0 0.786 0.46 1.268t1.237 0.482q0.732 0 1.384-0.473t1.049-1.125 0.585-1.366q0.054-0.196 0.138-0.594t0.129-0.594q0.027-0.107 0.125-0.161 1.054-0.536 2.027-0.536 0.429 0 1.134 0.161 0.009 0.009 0.036 0.009 0.045 0 0.085-0.040t0.040-0.076zM13.714 3.714v8.571q0 1.063-0.754 1.817t-1.817 0.754h-8.571q-1.063 0-1.817-0.754t-0.754-1.817v-8.571q0-1.063 0.754-1.817t1.817-0.754h8.571q1.063 0 1.817 0.754t0.754 1.817z"></path>
</svg>
