<?xml version="1.0" encoding="utf-8"?>
<!-- Generated by IcoMoon.io -->
<!DOCTYPE svg PUBLIC "-//W3C//DTD SVG 1.1//EN" "http://www.w3.org/Graphics/SVG/1.1/DTD/svg11.dtd">
<svg version="1.1" xmlns="http://www.w3.org/2000/svg" xmlns:xlink="http://www.w3.org/1999/xlink" width="14" height="16" viewBox="0 0 14 16">
<path fill="#4d4d4d" d="M6.643 2.723q0-0.214-0.018-0.344t-0.076-0.268-0.188-0.205-0.335-0.067q-0.348 0-0.696 0.205-0.938 0.518-1.42 1.701t-0.482 2.406q0 0.393 0.076 0.763t0.237 0.719 0.469 0.558 0.728 0.21q0.036 0 0.161 0.004t0.179 0 0.143-0.027 0.134-0.076 0.063-0.143q0.143-0.688 0.429-2.067t0.429-2.067q0.17-0.813 0.17-1.304zM13.375 8.58q0 0.063-0.067 0.121t-0.138 0.058l-0.054-0.009q-0.196-0.027-0.554-0.098t-0.643-0.112-0.563-0.040q-1.491 0-3.134 0.83-0.134 0.071-0.188 0.241-0.089 0.321-0.219 0.942t-0.201 0.897q-0.205 0.813-0.625 1.603t-1.004 1.469-1.379 1.098-1.652 0.42q-1.205 0-1.915-0.746t-0.71-1.96q0-0.473 0.174-1.045t0.563-1.040 0.871-0.469q0.339 0 1.071 0.299t0.741 0.549q0 0.009-0.147 0.112t-0.353 0.277-0.411 0.397-0.348 0.545-0.143 0.661q0 0.295 0.147 0.473t0.433 0.179q0.402 0 0.759-0.281t0.594-0.696 0.429-0.942 0.29-0.955 0.143-0.804v-0.080q0-0.018-0.031-0.031t-0.076-0.013h-0.089t-0.089 0.004-0.054 0.004q-2.027 0-3.143-1.094t-1.116-3.112q0-0.964 0.308-1.973t0.857-1.875 1.393-1.496 1.826-0.799q0.464-0.080 0.946-0.080 3.339 0 3.339 3.214 0 0.875-0.339 2.438t-0.384 1.884l0.027 0.027q0.902-0.509 1.629-0.786t1.496-0.277q0.196 0 0.473 0.116 0.17 0.063 0.714 0.915t0.545 1.040z"></path>
</svg>
