<?xml version="1.0" encoding="utf-8"?>
<!-- Generated by IcoMoon.io -->
<!DOCTYPE svg PUBLIC "-//W3C//DTD SVG 1.1//EN" "http://www.w3.org/Graphics/SVG/1.1/DTD/svg11.dtd">
<svg version="1.1" xmlns="http://www.w3.org/2000/svg" xmlns:xlink="http://www.w3.org/1999/xlink" width="16" height="16" viewBox="0 0 16 16">
<path fill="#4d4d4d" d="M3.938 6q0.286 0 0.464 0.232 2.375 3.25 3.232 6.911h-3.982q-1.134-3.938-3.277-6.688-0.107-0.143-0.027-0.299t0.259-0.156h3.33zM8.929 9.188q-0.438 1.777-1.116 3.509-0.705-2.768-2.286-5.304 0.357-1.973 0.393-4.009 1.884 3.036 3.009 5.804zM9.813 2.857q2.098 2.893 3.433 6.237t1.647 6.906h-4.027q-0.366-5.938-4.938-13.143h3.884zM16 8q0 3.786-0.902 7.25-0.598-5-3.205-9.67-0.223-2.688-0.946-5.214-0.036-0.143 0.049-0.254t0.228-0.112h3.205q0.188 0 0.344 0.116t0.201 0.295q1.027 3.652 1.027 7.589z"></path>
</svg>
