<?xml version="1.0" encoding="utf-8"?>
<!-- Generated by IcoMoon.io -->
<!DOCTYPE svg PUBLIC "-//W3C//DTD SVG 1.1//EN" "http://www.w3.org/Graphics/SVG/1.1/DTD/svg11.dtd">
<svg version="1.1" xmlns="http://www.w3.org/2000/svg" xmlns:xlink="http://www.w3.org/1999/xlink" width="16" height="16" viewBox="0 0 16 16">
<path fill="#4d4d4d" d="M2.991 12.107q-0.018 0-0.054-0.018-0.768-0.509-1.504-1.295t-1.246-1.607q-0.188-0.268-0.188-0.616 0-0.080 0.018-0.17t0.036-0.161 0.063-0.161 0.076-0.143 0.094-0.152 0.089-0.134 0.107-0.138 0.098-0.129q1.643-2.241 4.036-3.259-0.982-1.768-0.982-1.884 0-0.17 0.152-0.259 1.036-0.571 1.143-0.571 0.161 0 0.25 0.143l1.107 2.045q0.821-0.17 1.714-0.17 2.375 0 4.442 1.228t3.379 3.299q0.179 0.277 0.179 0.616t-0.179 0.616q-0.813 1.268-1.951 2.263t-2.487 1.567q0.982 1.768 0.982 1.884 0 0.179-0.152 0.259-1.036 0.571-1.134 0.571-0.17 0-0.259-0.143l-1.107-2.045-0.571-1.063-3.964-7.321 0.063-0.063q-0.518 0.214-0.884 0.42 0.027 0.045 1.134 2.089t2.17 4.009 1.063 1.991q0 0.063-0.080 0.080-0.116 0.027-0.643 0.027-0.509 0-0.536-0.063l-4.071-7.509q-0.348 0.25-0.732 0.607 0.214 0.384 1.911 3.513t1.696 3.165q0 0.089-0.098 0.089-0.125 0-0.737-0.196t-0.647-0.25l-0.946-1.759-2-3.688q-0.393 0.473-0.696 0.946 0.018 0.027 0.161 0.223t0.205 0.304l1.571 2.92q0 0.089-0.089 0.089zM10.402 11.196l0.438 0.813q2.438-0.991 4.018-3.438-1.607-2.473-4.098-3.473 0.598 0.571 0.92 1.326t0.321 1.576q0 0.946-0.42 1.79t-1.179 1.406zM7.571 5.714q0 0.179 0.125 0.304t0.304 0.125q0.768 0 1.313 0.545t0.545 1.313q0 0.179 0.125 0.304t0.304 0.125 0.304-0.125 0.125-0.304q0-1.125-0.795-1.92t-1.92-0.795q-0.179 0-0.304 0.125t-0.125 0.304zM10.839 5.134l-0.080-0.036 0.063 0.063z"></path>
</svg>
