<?xml version="1.0" encoding="utf-8"?>
<!-- Generated by IcoMoon.io -->
<!DOCTYPE svg PUBLIC "-//W3C//DTD SVG 1.1//EN" "http://www.w3.org/Graphics/SVG/1.1/DTD/svg11.dtd">
<svg version="1.1" xmlns="http://www.w3.org/2000/svg" xmlns:xlink="http://www.w3.org/1999/xlink" width="14" height="16" viewBox="0 0 14 16">
<path fill="#4d4d4d" d="M7.857 10.714v1.429q0 0.125-0.080 0.205t-0.205 0.080h-1.429q-0.125 0-0.205-0.080t-0.080-0.205v-1.429q0-0.125 0.080-0.205t0.205-0.080h1.429q0.125 0 0.205 0.080t0.080 0.205zM10.143 6.286q0 0.446-0.134 0.804t-0.406 0.616-0.464 0.393-0.531 0.321q-0.286 0.161-0.415 0.25t-0.232 0.214-0.103 0.259v0.286q0 0.125-0.080 0.205t-0.205 0.080h-1.429q-0.125 0-0.205-0.080t-0.080-0.205v-0.607q0-0.313 0.094-0.576t0.214-0.424 0.348-0.317 0.366-0.228 0.397-0.188q0.473-0.223 0.67-0.384t0.196-0.438q0-0.375-0.388-0.638t-0.853-0.263q-0.5 0-0.848 0.241-0.259 0.179-0.714 0.741-0.080 0.107-0.223 0.107-0.098 0-0.17-0.054l-0.964-0.732q-0.089-0.063-0.107-0.179t0.045-0.205q1.089-1.714 3.116-1.714 1.152 0 2.129 0.799t0.978 1.915zM6.857 2.286q-1.161 0-2.219 0.455t-1.821 1.219-1.219 1.821-0.455 2.219 0.455 2.219 1.219 1.821 1.821 1.219 2.219 0.455 2.219-0.455 1.821-1.219 1.219-1.821 0.455-2.219-0.455-2.219-1.219-1.821-1.821-1.219-2.219-0.455zM13.714 8q0 1.866-0.92 3.442t-2.496 2.496-3.442 0.92-3.442-0.92-2.496-2.496-0.92-3.442 0.92-3.442 2.496-2.496 3.442-0.92 3.442 0.92 2.496 2.496 0.92 3.442z"></path>
</svg>
