<?xml version="1.0" encoding="utf-8"?>
<!-- Generated by IcoMoon.io -->
<!DOCTYPE svg PUBLIC "-//W3C//DTD SVG 1.1//EN" "http://www.w3.org/Graphics/SVG/1.1/DTD/svg11.dtd">
<svg version="1.1" xmlns="http://www.w3.org/2000/svg" xmlns:xlink="http://www.w3.org/1999/xlink" width="14" height="16" viewBox="0 0 14 16">
<path fill="#4d4d4d" d="M13.393 13.83q0 0.795-0.563 1.362t-1.366 0.567-1.371-0.567-0.567-1.362q0-0.804 0.567-1.371t1.371-0.567 1.366 0.567 0.563 1.371zM11.313 11.321q-1.027 0.134-1.719 0.915t-0.692 1.835q0 0.661 0.295 1.232-1.304 0.696-3.384 0.696-0.973 0-1.795-0.188t-1.371-0.487-0.987-0.683-0.679-0.759-0.397-0.741-0.21-0.594-0.054-0.353q0-0.17 0.040-0.379t0.165-0.5 0.326-0.518 0.571-0.388 0.844-0.161 0.839 0.156 0.563 0.366 0.317 0.473 0.156 0.438 0.036 0.299q0 0.304-0.205 0.723 0.25 0.241 0.732 0.375t0.83 0.152l0.357 0.009q1.027 0 1.696-0.455t0.67-1.188q0-0.232-0.080-0.433t-0.281-0.397-0.442-0.366-0.661-0.393-0.835-0.424-1.067-0.504q-0.25-0.116-0.384-0.179-1.036-0.491-1.67-0.893t-1.094-0.911-0.643-1.121-0.183-1.451q0-0.696 0.183-1.339t0.589-1.228 1.004-1.018 1.487-0.688 1.978-0.254q1.071 0 1.964 0.232t1.469 0.598 0.978 0.839 0.571 0.942 0.17 0.924q0 0.411-0.134 0.737t-0.326 0.518-0.433 0.321-0.438 0.174-0.348 0.045h-0.357t-0.348-0.045-0.393-0.125-0.366-0.25-0.33-0.411-0.214-0.629-0.089-0.871q-0.134-0.143-0.527-0.228t-0.723-0.094l-0.33-0.009q-0.607 0-1.049 0.277t-0.629 0.625-0.188 0.679q0 0.214 0.045 0.384t0.214 0.411 0.473 0.455 0.866 0.478 1.339 0.522q0.679 0.223 1.237 0.478t0.973 0.496 0.741 0.527 0.54 0.531 0.366 0.558 0.237 0.554 0.129 0.567 0.054 0.554 0.009 0.558z"></path>
</svg>
