<?xml version="1.0" encoding="utf-8"?>
<!-- Generated by IcoMoon.io -->
<!DOCTYPE svg PUBLIC "-//W3C//DTD SVG 1.1//EN" "http://www.w3.org/Graphics/SVG/1.1/DTD/svg11.dtd">
<svg version="1.1" xmlns="http://www.w3.org/2000/svg" xmlns:xlink="http://www.w3.org/1999/xlink" width="15" height="16" viewBox="0 0 15 16">
<path fill="#4d4d4d" d="M7.42 6.009q0.286 0 0.527 0.161l1.982 1.321q0.545 0.357 0.982 0.866l1.304 1.518q0.357 0.411 0.259 0.946l-0.643 3.688q-0.054 0.286-0.263 0.478t-0.496 0.228l-4.705 0.5-3.143 0.286h-0.080q-0.348 0-0.603-0.25t-0.254-0.607q0-0.33 0.241-0.571t0.58-0.286l2.321-0.286h-4q-0.366 0-0.621-0.268t-0.237-0.634q0.018-0.348 0.286-0.58t0.616-0.232l3.946-0.009-4.652-0.571q-0.366-0.045-0.589-0.33t-0.17-0.652q0.054-0.313 0.308-0.513t0.585-0.201h0.089l4.295 0.536-3.134-0.839q-0.339-0.089-0.554-0.371t-0.161-0.612q0.054-0.321 0.295-0.522t0.554-0.201q0.054 0 0.179 0.018l4 0.857 1.938 0.33q0.009 0 0.027 0.004t0.027 0.004q0.205 0 0.272-0.205t-0.112-0.321l-1.661-1.116q-0.313-0.205-0.375-0.567t0.161-0.656q0.241-0.339 0.679-0.339zM6.795 7.813l1.661 1.116-1.946-0.33-0.045-0.018-0.321-0.339-2.125-2.339q-0.009-0.009-0.022-0.031t-0.022-0.031q-0.214-0.277-0.165-0.625t0.335-0.571q0.277-0.205 0.607-0.156t0.571 0.299l1.268 1.313-0.036 0.036t-0.045 0.036q-0.286 0.402-0.205 0.884t0.491 0.759zM14.714 3.759l0.134 2.375q0.036 0.652-0.098 1.313l-0.429 1.955q-0.107 0.527-0.598 0.777l-0.946 0.482q0.018-0.554-0.348-0.973l-1.304-1.518q-0.473-0.545-1.045-0.92l-1.982-1.321q-0.304-0.205-0.679-0.205-0.455 0-0.786 0.33l-2.098-2.786q-0.223-0.295-0.161-0.656t0.366-0.567q0.295-0.196 0.638-0.125t0.558 0.357l2.375 3.143-2.339-4.063q-0.188-0.313-0.094-0.67t0.424-0.527q0.313-0.161 0.647-0.054t0.513 0.411l2.152 3.75-1.214-3.009q-0.134-0.313-0.040-0.661t0.397-0.5q0.33-0.17 0.679-0.054t0.5 0.455l1.723 3.705 0.902 1.75q0.071 0.134 0.205 0.156t0.241-0.067 0.098-0.232l-0.107-2q-0.018-0.366 0.232-0.634t0.616-0.277q0.348 0 0.598 0.254t0.268 0.603z"></path>
</svg>
