<?xml version="1.0" encoding="utf-8"?>
<!-- Generated by IcoMoon.io -->
<!DOCTYPE svg PUBLIC "-//W3C//DTD SVG 1.1//EN" "http://www.w3.org/Graphics/SVG/1.1/DTD/svg11.dtd">
<svg version="1.1" xmlns="http://www.w3.org/2000/svg" xmlns:xlink="http://www.w3.org/1999/xlink" width="14" height="16" viewBox="0 0 14 16">
<path fill="#4d4d4d" d="M11.42 10.25q0-0.196-0.196-0.241-0.598-0.134-1.054-0.527t-0.714-0.964q-0.063-0.17-0.063-0.223 0-0.134 0.174-0.232t0.384-0.152 0.384-0.183 0.174-0.326q0-0.17-0.165-0.281t-0.344-0.112q-0.107 0-0.286 0.071t-0.277 0.071q-0.036 0-0.107-0.018 0.045-0.848 0.045-1.018 0-0.705-0.152-1.018-0.321-0.696-0.92-1.085t-1.357-0.388q-1.777 0-2.455 1.473-0.152 0.313-0.152 1.018 0 0.17 0.045 1.018-0.036 0.018-0.125 0.018-0.107 0-0.286-0.067t-0.268-0.067q-0.188 0-0.344 0.107t-0.156 0.286q0 0.188 0.174 0.317t0.384 0.183 0.384 0.152 0.174 0.232q0 0.054-0.063 0.223-0.571 1.232-1.768 1.491-0.196 0.045-0.196 0.241 0 0.411 1.223 0.607 0.018 0.045 0.054 0.232t0.103 0.272 0.21 0.085q0.107 0 0.335-0.040t0.353-0.040q0.313 0 0.598 0.134t0.482 0.29 0.513 0.29 0.683 0.134q0.384 0 0.705-0.134t0.513-0.29 0.478-0.29 0.598-0.134q0.125 0 0.353 0.036t0.344 0.036q0.143 0 0.205-0.089t0.098-0.268 0.054-0.223q1.223-0.196 1.223-0.607zM13.714 8q0 1.866-0.92 3.442t-2.496 2.496-3.442 0.92-3.442-0.92-2.496-2.496-0.92-3.442 0.92-3.442 2.496-2.496 3.442-0.92 3.442 0.92 2.496 2.496 0.92 3.442z"></path>
</svg>
