<?xml version="1.0" encoding="utf-8"?>
<!-- Generated by IcoMoon.io -->
<!DOCTYPE svg PUBLIC "-//W3C//DTD SVG 1.1//EN" "http://www.w3.org/Graphics/SVG/1.1/DTD/svg11.dtd">
<svg version="1.1" xmlns="http://www.w3.org/2000/svg" xmlns:xlink="http://www.w3.org/1999/xlink" width="14" height="16" viewBox="0 0 14 16">
<path fill="#4d4d4d" d="M11.429 10.25q0-0.196-0.196-0.241-0.598-0.125-1.054-0.518t-0.714-0.973q-0.063-0.125-0.063-0.223 0-0.134 0.174-0.232t0.379-0.152 0.379-0.183 0.174-0.326q0-0.17-0.165-0.281t-0.344-0.112q-0.098 0-0.277 0.071t-0.286 0.071q-0.036 0-0.107-0.018 0.045-0.563 0.045-1.027 0-0.696-0.152-1.018-0.321-0.696-0.915-1.085t-1.362-0.388q-1.768 0-2.455 1.473-0.161 0.339-0.161 1.027 0 0.339 0.054 1.018-0.089 0.018-0.134 0.018-0.098 0-0.281-0.071t-0.272-0.071q-0.179 0-0.335 0.112t-0.156 0.29q0 0.188 0.174 0.317t0.379 0.183 0.379 0.152 0.174 0.232q0 0.098-0.063 0.223-0.571 1.232-1.768 1.491-0.196 0.045-0.196 0.241 0 0.42 1.232 0.616 0.018 0.045 0.054 0.232t0.098 0.272 0.205 0.085q0.116 0 0.344-0.045t0.344-0.045q0.313 0 0.603 0.134t0.487 0.29 0.513 0.29 0.683 0.134q0.384 0 0.705-0.134t0.513-0.29 0.482-0.29 0.603-0.134q0.116 0 0.348 0.040t0.348 0.040q0.134 0 0.201-0.085t0.103-0.277 0.045-0.219q1.232-0.196 1.232-0.616zM13.714 3.714v8.571q0 1.063-0.754 1.817t-1.817 0.754h-8.571q-1.063 0-1.817-0.754t-0.754-1.817v-8.571q0-1.063 0.754-1.817t1.817-0.754h8.571q1.063 0 1.817 0.754t0.754 1.817z"></path>
</svg>
