<?xml version="1.0" encoding="utf-8"?>
<!-- Generated by IcoMoon.io -->
<!DOCTYPE svg PUBLIC "-//W3C//DTD SVG 1.1//EN" "http://www.w3.org/Graphics/SVG/1.1/DTD/svg11.dtd">
<svg version="1.1" xmlns="http://www.w3.org/2000/svg" xmlns:xlink="http://www.w3.org/1999/xlink" width="15" height="16" viewBox="0 0 15 16">
<path fill="#4d4d4d" d="M7.571 1.143q1.196-0.009 2.147 0.612t1.46 1.719q0.241 0.518 0.241 1.598 0 0.42-0.080 1.705 0.125 0.063 0.25 0.063 0.161 0 0.455-0.121t0.455-0.121q0.259 0 0.5 0.161t0.241 0.411q0 0.286-0.281 0.482t-0.616 0.281-0.616 0.259-0.281 0.424q0 0.134 0.107 0.384 0.33 0.732 0.915 1.339t1.29 0.902q0.25 0.107 0.714 0.205 0.25 0.054 0.25 0.313 0 0.625-1.955 0.92-0.063 0.098-0.098 0.348t-0.125 0.415-0.295 0.165q-0.179 0-0.554-0.058t-0.571-0.058q-0.33 0-0.554 0.045-0.286 0.045-0.563 0.201t-0.518 0.339-0.518 0.362-0.679 0.299-0.884 0.121q-0.464 0-0.862-0.121t-0.67-0.299-0.513-0.362-0.518-0.339-0.554-0.201q-0.232-0.045-0.563-0.045-0.214 0-0.585 0.067t-0.522 0.067q-0.223 0-0.313-0.165t-0.125-0.424-0.098-0.357q-1.955-0.295-1.955-0.92 0-0.259 0.25-0.313 0.464-0.098 0.714-0.205 0.696-0.286 1.29-0.902t0.915-1.339q0.107-0.25 0.107-0.384 0-0.25-0.281-0.424t-0.621-0.263-0.621-0.281-0.281-0.469q0-0.241 0.232-0.406t0.491-0.165q0.134 0 0.429 0.116t0.473 0.116q0.161 0 0.286-0.063-0.080-1.268-0.080-1.696 0-1.089 0.241-1.607 0.571-1.223 1.536-1.768t2.357-0.563z"></path>
</svg>
