<?xml version="1.0" encoding="utf-8"?>
<!-- Generated by IcoMoon.io -->
<!DOCTYPE svg PUBLIC "-//W3C//DTD SVG 1.1//EN" "http://www.w3.org/Graphics/SVG/1.1/DTD/svg11.dtd">
<svg version="1.1" xmlns="http://www.w3.org/2000/svg" xmlns:xlink="http://www.w3.org/1999/xlink" width="16" height="16" viewBox="0 0 16 16">
<path fill="#4d4d4d" d="M12.268 5.866q-0.054-0.232-0.254-0.353t-0.433-0.067q-2.33 0.554-3.58 0.554t-3.58-0.554q-0.232-0.054-0.433 0.067t-0.254 0.353 0.067 0.433 0.353 0.254q1.732 0.411 2.705 0.518-0.018 1.411-0.138 2.402t-0.237 1.388-0.366 1.031l-0.080 0.188q-0.089 0.223 0.009 0.438t0.321 0.304q0.080 0.036 0.205 0.036 0.393 0 0.536-0.366l0.071-0.179q0.482-1.241 0.634-2.313h0.375q0.152 1.071 0.634 2.313l0.071 0.179q0.143 0.366 0.536 0.366 0.125 0 0.205-0.036 0.223-0.089 0.321-0.304t0.009-0.438l-0.080-0.188q-0.25-0.634-0.366-1.031t-0.237-1.388-0.138-2.402q0.973-0.107 2.705-0.518 0.232-0.054 0.353-0.254t0.067-0.433zM9.143 4.571q0-0.473-0.335-0.808t-0.808-0.335-0.808 0.335-0.335 0.808 0.335 0.808 0.808 0.335 0.808-0.335 0.335-0.808zM14.286 8q0 1.277-0.496 2.442t-1.339 2.009-2.009 1.339-2.442 0.496-2.442-0.496-2.009-1.339-1.339-2.009-0.496-2.442 0.496-2.442 1.339-2.009 2.009-1.339 2.442-0.496 2.442 0.496 2.009 1.339 1.339 2.009 0.496 2.442zM8 1.143q-1.393 0-2.661 0.545t-2.188 1.464-1.464 2.188-0.545 2.661 0.545 2.661 1.464 2.188 2.188 1.464 2.661 0.545 2.661-0.545 2.188-1.464 1.464-2.188 0.545-2.661-0.545-2.661-1.464-2.188-2.188-1.464-2.661-0.545zM16 8q0 1.625-0.634 3.107t-1.705 2.554-2.554 1.705-3.107 0.634-3.107-0.634-2.554-1.705-1.705-2.554-0.634-3.107 0.634-3.107 1.705-2.554 2.554-1.705 3.107-0.634 3.107 0.634 2.554 1.705 1.705 2.554 0.634 3.107z"></path>
</svg>
