<?xml version="1.0" encoding="utf-8"?>
<!-- Generated by IcoMoon.io -->
<!DOCTYPE svg PUBLIC "-//W3C//DTD SVG 1.1//EN" "http://www.w3.org/Graphics/SVG/1.1/DTD/svg11.dtd">
<svg version="1.1" xmlns="http://www.w3.org/2000/svg" xmlns:xlink="http://www.w3.org/1999/xlink" width="14" height="16" viewBox="0 0 14 16">
<path fill="#4d4d4d" d="M9.375 9.295q0-0.696-0.25-1.313-0.366 0.223-0.759 0.304 0.196 0.446 0.196 1.018 0 1.045-0.688 1.772t-1.723 0.728-1.728-0.728-0.692-1.772q0-1.027 0.696-1.781t1.723-0.754q0.473 0 0.875 0.17 0.036-0.384 0.241-0.777-0.536-0.188-1.116-0.188-1.375 0-2.299 0.969t-0.924 2.353 0.924 2.33 2.299 0.946 2.299-0.951 0.924-2.326zM7.786 6.125q0.018 0.214 0.018 0.634 0 0.563-0.045 1.098t-0.183 1.183-0.362 1.161-0.612 0.946-0.897 0.629q0.188 0.027 0.375 0.027h0.089q1.955-1.241 1.955-3.67 0-1.036-0.339-2.009zM7.786 6.125q-0.036-0.714-0.393-1.531t-0.875-1.165q0.821 1.393 1.268 2.696zM10.777 5.188q0-0.911-0.455-1.554-0.366 0.768-1.107 0.973-0.616 0.17-0.973 0.478t-0.357 0.888q0 0.357 0.214 0.688 0.661-0.152 1.254-0.598t0.853-1.027q-0.036 0.464-0.665 0.996t-1.237 0.871q0.464 0.464 0.982 0.464 0.455 0 0.804-0.33t0.536-0.804q0.152-0.384 0.152-1.045zM13.714 3.714v8.571q0 1.063-0.754 1.817t-1.817 0.754h-8.571q-1.063 0-1.817-0.754t-0.754-1.817v-8.571q0-1.063 0.754-1.817t1.817-0.754h8.571q1.063 0 1.817 0.754t0.754 1.817z"></path>
</svg>
