<?xml version="1.0" encoding="utf-8"?>
<!-- Generated by IcoMoon.io -->
<!DOCTYPE svg PUBLIC "-//W3C//DTD SVG 1.1//EN" "http://www.w3.org/Graphics/SVG/1.1/DTD/svg11.dtd">
<svg version="1.1" xmlns="http://www.w3.org/2000/svg" xmlns:xlink="http://www.w3.org/1999/xlink" width="11" height="16" viewBox="0 0 11 16">
<path fill="#4d4d4d" d="M9.375 9.875q0 1.92-1.313 3.339-1.321 1.438-3.375 1.438-2.071 0-3.375-1.438-1.313-1.42-1.313-3.339 0-1.313 0.607-2.415t1.688-1.754 2.393-0.652q0.857 0 1.625 0.277-0.286 0.554-0.348 1.125-0.589-0.25-1.277-0.25-1.491 0-2.504 1.098t-1.013 2.598q0 1.518 1.004 2.576t2.513 1.058 2.509-1.058 1-2.576q0-0.795-0.286-1.482 0.589-0.116 1.098-0.438 0.366 0.875 0.366 1.893zM7.554 8.188q0 1.714-0.71 3.080t-2.129 2.259l-0.125 0.009q-0.259 0-0.554-0.045 0.741-0.286 1.308-0.915t0.888-1.379 0.522-1.688 0.268-1.719 0.067-1.594q0-0.616-0.027-0.92 0.491 1.429 0.491 2.911zM7.063 5.259v0.018q-0.652-1.911-1.839-3.929 0.786 0.527 1.272 1.665t0.567 2.246zM9.241 7.071q-0.741 0-1.429-0.67 1.946-1.071 2.589-2.205 0.17-0.33 0.188-0.5-0.375 0.839-1.246 1.487t-1.826 0.871q-0.313-0.482-0.313-1.009 0-0.33 0.152-0.705t0.384-0.607q0.411-0.393 1.402-0.661 0.527-0.143 0.946-0.522t0.661-0.897q0.661 0.938 0.661 2.259 0 0.973-0.214 1.518-0.286 0.688-0.79 1.165t-1.165 0.478z"></path>
</svg>
