<?xml version="1.0" encoding="utf-8"?>
<!-- Generated by IcoMoon.io -->
<!DOCTYPE svg PUBLIC "-//W3C//DTD SVG 1.1//EN" "http://www.w3.org/Graphics/SVG/1.1/DTD/svg11.dtd">
<svg version="1.1" xmlns="http://www.w3.org/2000/svg" xmlns:xlink="http://www.w3.org/1999/xlink" width="13" height="16" viewBox="0 0 13 16">
<path fill="#4d4d4d" d="M5.509 15.080q0-0.098-0.116-0.518t-0.277-0.955-0.179-0.616q-0.009-0.036-0.045-0.237t-0.076-0.321-0.121-0.192q-0.134-0.125-0.455-0.125-0.205 0-0.625 0.049t-0.634 0.049q-0.304 0-0.42-0.098-0.054-0.045-0.098-0.138t-0.067-0.179-0.058-0.214-0.045-0.165q-0.33-1.143-0.33-2.277t0.33-2.277q0.009-0.036 0.045-0.165t0.058-0.214 0.067-0.179 0.098-0.138q0.116-0.098 0.42-0.098 0.214 0 0.634 0.049t0.625 0.049q0.321 0 0.455-0.125 0.080-0.071 0.121-0.192t0.076-0.321 0.045-0.237q0.018-0.080 0.179-0.616t0.277-0.955 0.116-0.518q0-0.196-0.388-0.469t-0.674-0.379q-0.179-0.071-0.402-0.071-0.304 0-0.875 0.161-0.509 0.152-0.862 0.362t-0.634 0.589-0.411 0.625-0.406 0.844q-0.054 0.107-0.080 0.17-0.438 0.955-0.607 1.929t-0.17 2.179 0.17 2.179 0.607 1.929q0.5 1.089 0.741 1.438 0.563 0.813 1.598 1.134l0.054 0.018q0.571 0.161 0.875 0.161 0.223 0 0.402-0.071 0.286-0.107 0.674-0.379t0.388-0.469zM6.929 6.929q-0.232 0-0.402-0.17t-0.17-0.406 0.17-0.406q0.33-0.33 0.33-0.804 0-0.464-0.33-0.813-0.17-0.17-0.17-0.402t0.17-0.402 0.402-0.17 0.402 0.17q0.67 0.67 0.67 1.616t-0.67 1.616q-0.188 0.17-0.402 0.17zM8.545 8.545q-0.241 0-0.402-0.17-0.17-0.17-0.17-0.402t0.17-0.402q1-1.018 1-2.429t-1-2.429q-0.17-0.17-0.17-0.402t0.17-0.402 0.402-0.17 0.402 0.17q1.339 1.339 1.339 3.232t-1.339 3.232q-0.161 0.17-0.402 0.17zM10.161 10.161q-0.241 0-0.402-0.17-0.17-0.17-0.17-0.402t0.17-0.402q0.804-0.813 1.237-1.857t0.433-2.188-0.433-2.188-1.237-1.857q-0.17-0.17-0.17-0.402t0.17-0.402 0.402-0.17 0.402 0.17q0.973 0.973 1.491 2.223t0.518 2.625-0.518 2.625-1.491 2.223q-0.161 0.17-0.402 0.17z"></path>
</svg>
