<?xml version="1.0" encoding="utf-8"?>
<!-- Generated by IcoMoon.io -->
<!DOCTYPE svg PUBLIC "-//W3C//DTD SVG 1.1//EN" "http://www.w3.org/Graphics/SVG/1.1/DTD/svg11.dtd">
<svg version="1.1" xmlns="http://www.w3.org/2000/svg" xmlns:xlink="http://www.w3.org/1999/xlink" width="14" height="16" viewBox="0 0 14 16">
<path fill="#4d4d4d" d="M12.839 7.259q0.304 0.313 0.259 0.732l-0.393 4.92q-0.036 0.375-0.308 0.625t-0.638 0.25q-0.054 0-0.080-0.009-0.393-0.027-0.647-0.326t-0.228-0.692l0.313-3.83-1.277 0.071q0.491 1.009 0.491 2.143 0 1.929-1.321 3.321l-1.223-1.223q0.812-0.902 0.812-2.098 0-1.295-0.915-2.214t-2.21-0.92q-1.196 0-2.107 0.821l-1.223-1.232q1.071-1.018 2.536-1.259l2.357-2.679-1.33-0.777-1.616 1.437q-0.295 0.268-0.688 0.246t-0.652-0.317-0.237-0.688 0.308-0.652l2.134-1.902q0.232-0.205 0.536-0.237t0.571 0.129l4.357 2.527q0.321 0.188 0.429 0.607 0.152 0.598-0.232 1.045l-1.83 2.071 3.313-0.179q0.438-0.027 0.741 0.286zM11.071 3.179q-0.661 0-1.125-0.464t-0.464-1.125 0.464-1.125 1.125-0.464 1.129 0.464 0.469 1.125-0.469 1.125-1.129 0.464zM5.473 14.268q0.946 0 1.75-0.545l1.241 1.241q-1.304 1.036-2.991 1.036-1.321 0-2.442-0.652t-1.772-1.768-0.652-2.438q0-1.679 1.036-3l1.241 1.241q-0.536 0.786-0.536 1.759 0 1.295 0.915 2.21t2.21 0.915z"></path>
</svg>
