<?xml version="1.0" encoding="utf-8"?>
<!-- Generated by IcoMoon.io -->
<!DOCTYPE svg PUBLIC "-//W3C//DTD SVG 1.1//EN" "http://www.w3.org/Graphics/SVG/1.1/DTD/svg11.dtd">
<svg version="1.1" xmlns="http://www.w3.org/2000/svg" xmlns:xlink="http://www.w3.org/1999/xlink" width="16" height="16" viewBox="0 0 16 16">
<path fill="#4d4d4d" d="M3.429 7.429h1.429v-2h-1.429v2zM10.902 10.393v-0.821q-0.929 0.321-2.17 0.339-1.205 0.009-2.317-0.415t-1.969-1.094l0.009 0.857q0.786 0.714 1.893 1.147t2.429 0.424q1.152 0 2.125-0.438zM5.714 7.429h5.714v-2h-5.714v2zM16 7.143q0 1.67-0.884 3.143 0.795 0.911 0.795 2.045 0 1.402-1.156 2.393t-2.799 0.991q-1.089 0-2.009-0.469t-1.438-1.254q-0.17 0.009-0.509 0.009t-0.509-0.009q-0.518 0.786-1.438 1.254t-2.009 0.469q-1.643 0-2.799-0.991t-1.156-2.393q0-1.134 0.795-2.045-0.884-1.473-0.884-3.143 0-1.866 1.071-3.442t2.915-2.496 4.013-0.92 4.013 0.92 2.915 2.496 1.071 3.442z"></path>
</svg>
