<?xml version="1.0" encoding="utf-8"?>
<!-- Generated by IcoMoon.io -->
<!DOCTYPE svg PUBLIC "-//W3C//DTD SVG 1.1//EN" "http://www.w3.org/Graphics/SVG/1.1/DTD/svg11.dtd">
<svg version="1.1" xmlns="http://www.w3.org/2000/svg" xmlns:xlink="http://www.w3.org/1999/xlink" width="14" height="16" viewBox="0 0 14 16">
<path fill="#4d4d4d" d="M4.598 8.134v1.143h-2.25v-1.143h2.25zM4.598 5.857v1.134h-2.25v-1.134h2.25zM11.366 10.42v1.143h-3.045v-1.143h3.045zM11.366 8.134v1.143h-6v-1.143h6zM11.366 5.857v1.134h-6v-1.134h6zM12.571 13.536v-11.071q0-0.071-0.054-0.125t-0.125-0.054h-0.286l-3.375 2.286-1.875-1.527-1.875 1.527-3.375-2.286h-0.286q-0.071 0-0.125 0.054t-0.054 0.125v11.071q0 0.071 0.054 0.125t0.125 0.054h11.071q0.071 0 0.125-0.054t0.054-0.125zM4.938 3.625l1.652-1.339h-3.625zM8.777 3.625l1.973-1.339h-3.625zM13.714 2.464v11.071q0 0.554-0.384 0.938t-0.938 0.384h-11.071q-0.554 0-0.938-0.384t-0.384-0.938v-11.071q0-0.554 0.384-0.938t0.938-0.384h11.071q0.554 0 0.938 0.384t0.384 0.938z"></path>
</svg>
